# xmcd
#
# Track frame offsets:
#	150
#	15752
#	24809
#	36920
#	47090
#	63648
#	75176
#	89319
#	100205
#	114281
#
# Disc length: 1701 seconds
#
# Revision: 1
# Processed by: cddbd v1.5.2PL0 Copyright (c) Steve Scherf et al.
# Submitted via: EasyCDDAExtractor 10.0.6.1
#
DISCID=6306a30a
DTITLE=Abigail Moore - Gal Who's Always Happy
DYEAR=1900
DGENRE=Bluegrass
TTITLE0=Gal Who's Always Happy
TTITLE1=Bringing In The Georgia Mail
TTITLE2=Shoot The Turkey Buzzard
TTITLE3=Blue Moon Of Kentucky
TTITLE4=God Sent An Angel
TTITLE5=Family Circle
TTITLE6=Nanahala
TTITLE7=Wreck Of The Old 97
TTITLE8=Close By
TTITLE9=Candy Gal
EXTD=
EXTT0=
EXTT1=
EXTT2=
EXTT3=
EXTT4=
EXTT5=
EXTT6=
EXTT7=
EXTT8=
EXTT9=
PLAYORDER=
